/* XPM */
static char * bb9_xpm[] = {
"32 28 308 2",
"  	c None",
". 	c #004500",
"+ 	c #004300",
"@ 	c #004400",
"# 	c #004200",
"$ 	c #004000",
"% 	c #004100",
"& 	c #014001",
"* 	c #014101",
"= 	c #024102",
"- 	c #003F00",
"; 	c #034003",
"> 	c #235523",
", 	c #3D6A3D",
"' 	c #3F6D3F",
") 	c #3E6C3E",
"! 	c #3D6B3D",
"~ 	c #386738",
"{ 	c #3B693B",
"] 	c #3A673A",
"^ 	c #3F6B3F",
"/ 	c #436D42",
"( 	c #446E44",
"_ 	c #346534",
": 	c #306030",
"< 	c #174D17",
"[ 	c #013F01",
"} 	c #0C440C",
"| 	c #718B71",
"1 	c #BFC9BF",
"2 	c #D0D6CF",
"3 	c #D1D8D1",
"4 	c #D5DBD5",
"5 	c #D6DCD6",
"6 	c #DBE0DB",
"7 	c #DBDFDB",
"8 	c #DDE1DD",
"9 	c #D7DCD7",
"0 	c #D2D7D2",
"a 	c #CAD1CA",
"b 	c #C4CDC5",
"c 	c #ABB9AB",
"d 	c #597959",
"e 	c #074107",
"f 	c #194C19",
"g 	c #98A997",
"h 	c #E1E4E0",
"i 	c #F0EFEF",
"j 	c #F1F1F1",
"k 	c #F2F2F2",
"l 	c #F1F0F0",
"m 	c #EFEFEF",
"n 	c #EDEDED",
"o 	c #EBEBEB",
"p 	c #E8E8E9",
"q 	c #E7E7E7",
"r 	c #D5D7D5",
"s 	c #7F957F",
"t 	c #104610",
"u 	c #024002",
"v 	c #2C582C",
"w 	c #B2BDB2",
"x 	c #E6E7E6",
"y 	c #F0F0F1",
"z 	c #EEEEEE",
"A 	c #ECECEC",
"B 	c #E9E9E9",
"C 	c #E8E8E8",
"D 	c #DDDFDD",
"E 	c #9AA99A",
"F 	c #1B4D1B",
"G 	c #064106",
"H 	c #426742",
"I 	c #CAD0CA",
"J 	c #EAEAEA",
"K 	c #EFEFEE",
"L 	c #EEEEEF",
"M 	c #ECECEB",
"N 	c #E9E8E8",
"O 	c #E1E2E1",
"P 	c #B1BBB1",
"Q 	c #2D592D",
"R 	c #0A430A",
"S 	c #5F7C5E",
"T 	c #D8DBD8",
"U 	c #E9E9E8",
"V 	c #EEEDEE",
"W 	c #EDECED",
"X 	c #E6E6E6",
"Y 	c #E4E4E4",
"Z 	c #CBCECA",
"` 	c #4E6C4B",
" .	c #094409",
"..	c #134813",
"+.	c #819680",
"@.	c #E2E3E1",
"#.	c #EBECEB",
"$.	c #EBEAEB",
"%.	c #E8E9E9",
"&.	c #E7E6E6",
"*.	c #E5E5E5",
"=.	c #DBDBDA",
"-.	c #9A9A93",
";.	c #133B00",
">.	c #014100",
",.	c #255525",
"'.	c #A6B3A6",
").	c #E8E9E8",
"!.	c #E9EAEA",
"~.	c #EAEBEB",
"{.	c #E6E6E5",
"].	c #E1E1E1",
"^.	c #BBBBBA",
"/.	c #462400",
"(.	c #3E683E",
"_.	c #B3BBB3",
":.	c #DBDBDB",
"<.	c #DCDDDC",
"[.	c #DFDFDF",
"}.	c #E0E0E0",
"|.	c #E1E0E0",
"1.	c #DCDDDD",
"2.	c #D7D7D7",
"3.	c #D2D2D2",
"4.	c #CECCCC",
"5.	c #D3CECE",
"6.	c #D3CACA",
"7.	c #D3C7C7",
"8.	c #B5A09C",
"9.	c #6A422D",
"0.	c #0D470B",
"a.	c #054305",
"b.	c #BCBCBC",
"c.	c #C5C5C5",
"d.	c #C3C3C3",
"e.	c #BBBBBB",
"f.	c #BCBFB9",
"g.	c #C2C7BC",
"h.	c #BEBFBD",
"i.	c #C6C6C6",
"j.	c #CBCBCB",
"k.	c #A9A8A8",
"l.	c #AB8E8E",
"m.	c #CA7878",
"n.	c #DC5050",
"o.	c #E04F4F",
"p.	c #E14C4C",
"q.	c #E14B4B",
"r.	c #DD4241",
"s.	c #E1302F",
"t.	c #EB2B2B",
"u.	c #EE2F2F",
"v.	c #EC2F2F",
"w.	c #E62D2B",
"x.	c #BC372B",
"y.	c #7D5439",
"z.	c #415329",
"A.	c #A1A1A1",
"B.	c #A4A4A4",
"C.	c #919191",
"D.	c #60625D",
"E.	c #657452",
"F.	c #73914F",
"G.	c #5B6452",
"H.	c #717171",
"I.	c #A0A0A0",
"J.	c #979797",
"K.	c #926262",
"L.	c #EC2B2B",
"M.	c #EF2929",
"N.	c #EE2C2A",
"O.	c #E94A2B",
"P.	c #E3423D",
"Q.	c #E92F34",
"R.	c #ED2B2B",
"S.	c #E53131",
"T.	c #DE3535",
"U.	c #E23131",
"V.	c #E72E2E",
"W.	c #A05151",
"X.	c #A2A2A2",
"Y.	c #949494",
"Z.	c #696C66",
"`.	c #6D7D5B",
" +	c #7A955A",
".+	c #666F5B",
"++	c #787878",
"@+	c #9C9C9C",
"#+	c #999999",
"$+	c #C15D5D",
"%+	c #F02D2D",
"&+	c #F03131",
"*+	c #F03030",
"=+	c #F0392C",
"-+	c #ED883B",
";+	c #EBD062",
">+	c #E0C767",
",+	c #B7A993",
"'+	c #A9859B",
")+	c #B3627D",
"!+	c #BE5062",
"~+	c #C9464B",
"{+	c #D6383A",
"]+	c #E04343",
"^+	c #AEAEAE",
"/+	c #B9B9B9",
"(+	c #B8B8B8",
"_+	c #B2B2B1",
":+	c #B3B6B1",
"<+	c #B6BAB2",
"[+	c #B6B7B5",
"}+	c #BEBEBE",
"|+	c #9F9F9F",
"1+	c #A24F4F",
"2+	c #CC3131",
"3+	c #E13D3D",
"4+	c #F24545",
"5+	c #F65858",
"6+	c #FA8B66",
"7+	c #F6C775",
"8+	c #F3ED92",
"9+	c #F1EC8A",
"0+	c #EEEA78",
"a+	c #E1E272",
"b+	c #B0CA9F",
"c+	c #7EB1CE",
"d+	c #67A3C5",
"e+	c #4B8AB3",
"f+	c #9B4653",
"g+	c #C94747",
"h+	c #808080",
"i+	c #909090",
"j+	c #929292",
"k+	c #959595",
"l+	c #818181",
"m+	c #A95454",
"n+	c #BE3131",
"o+	c #C53232",
"p+	c #D03131",
"q+	c #DA3939",
"r+	c #ECCD47",
"s+	c #EBE554",
"t+	c #E7E045",
"u+	c #EEDF49",
"v+	c #DAD220",
"w+	c #C5BE11",
"x+	c #AAAD21",
"y+	c #257BAB",
"z+	c #1C76A8",
"A+	c #1874A6",
"B+	c #8B4352",
"C+	c #C84A4A",
"D+	c #845554",
"E+	c #C03A3A",
"F+	c #C83535",
"G+	c #CE3333",
"H+	c #D53535",
"I+	c #F8D64C",
"J+	c #F6E541",
"K+	c #DBD30A",
"L+	c #C3BC00",
"M+	c #B9B200",
"N+	c #B3AA00",
"O+	c #9EA012",
"P+	c #1773A6",
"Q+	c #1A76A9",
"R+	c #8D4C5A",
"S+	c #905252",
"T+	c #492E16",
"U+	c #532F22",
"V+	c #863C36",
"W+	c #B93939",
"X+	c #C93636",
"Y+	c #E5C748",
"Z+	c #F5E44D",
"`+	c #E8DD22",
" @	c #CFC60E",
".@	c #BEB607",
"+@	c #B6AD09",
"@@	c #A1A21D",
"#@	c #2B759F",
"$@	c #2D77A0",
"%@	c #366682",
"&@	c #47434A",
"*@	c #1A3700",
"=@	c #4C2800",
"-@	c #4E2801",
";@	c #4C2D0E",
">@	c #553A26",
",@	c #624435",
"'@	c #6D6939",
")@	c #848341",
"!@	c #948D45",
"~@	c #8C8638",
"{@	c #7A772E",
"]@	c #716E37",
"^@	c #6D6B46",
"/@	c #586269",
"(@	c #073D00",
"_@	c #143900",
":@	c #173800",
"<@	c #293200",
"[@	c #293300",
"}@	c #203500",
"|@	c #263200",
"1@	c #113900",
"2@	c #043E00",
"3@	c #023F00",
"                            . + @                               ",
"                    @ @ @ # $ $ $ % #                           ",
"            @ $ $ $ $ $ $ $ $ $ $ $ $ $ $ $ #                   ",
"            + $ $ $ $ $ $ $ $ $ $ $ $ $ $ $ %                   ",
"            # $ $ $ $ $ $ $ $ $ $ $ $ $ $ $ $ +                 ",
"          # $ $ $ $ $ $ $ $ $ $ $ $ $ $ $ $ $ % % % #           ",
"      % $ $ $ $ $ $ $ $ $ $ $ $ $ $ $ $ $ $ $ $ $ $ % +         ",
"    % $ $ $ $ $ $ $ $ $ $ $ $ $ $ $ $ $ $ $ $ $ $ $ $ % +       ",
"    $ $ $ & $ * * = = = & $ $ $ $ $ $ $ $ $ $ $ $ $ # @ .       ",
"    # - ; > , ' ) ' ! ~ { ] ^ / ( , _ : < [ $ $ $ $ +     +     ",
"    + - } | 1 2 3 4 5 6 7 8 7 9 0 a b c d e - $ $ $ $ % + $ +   ",
"  + % - f g h i j k k k j l m n o p q r s t - $ $ $ $ $ $ $     ",
"  % $ u v w x m i j j j y m z A o B C D E F [ $ $ $ $ $ $ $ #   ",
"  % $ G H I J n z K m m L z n M J N q O P Q ; $ $ $ $ $ $ $ % @ ",
"  % $ R S T U A A n n n V W A J U q X Y Z `  .% $ $ $ $ $ $ $ + ",
"  $ $ ..+.@.B J o o #.o o $.J %.C &.*.Y =.-.    ;.>.$ $ $ $ $ @ ",
"  % $ ,.'.x ).!.~.o #.o o o J %.C X {.Y ].^.  /.      % $ $ %   ",
"  . * (._.:.<.[.}.].].].|.[.1.2.3.4.5.6.7.8.9.        0.a.= #   ",
"        b.c.d.e.f.g.h.i.j.i.k.l.m.n.o.p.q.r.s.t.u.v.w.x.y.z.    ",
"        A.B.C.D.E.F.G.H.I.J.K.L.M.M.M.M.M.N.O.P.Q.R.S.T.U.V.W.  ",
"        X.B.Y.Z.`. +.+++@+#+$+L.%+&+&+*+=+-+;+>+,+'+)+!+~+{+]+  ",
"        ^+/+(+_+:+<+[+/+}+|+1+2+3+4+5+6+7+8+9+0+a+b+c+d+e+f+g+  ",
"        h+i+C.j+j+Y.Y.Y.k+l+m+n+o+p+q+r+s+t+u+v+w+x+y+z+A+B+C+  ",
"                            D+E+F+G+H+I+J+K+L+M+N+O+P+P+Q+R+S+  ",
"                            T+U+V+W+X+Y+Z+`+ @.@+@@@#@$@%@&@    ",
"                          *@=@-@;@>@,@'@)@!@~@{@]@^@/@          ",
"                      $ (@_@:@<@[@}@|@1@(@$                     ",
"                              2@2@3@                            "};
