/* XPM */
static char * gts_xpm[] = {
"32 28 59 1",
" 	c None",
".	c #004500",
"+	c #004300",
"@	c #004400",
"#	c #004200",
"$	c #004000",
"%	c #004100",
"&	c #014000",
"*	c #024100",
"=	c #034200",
"-	c #133A00",
";	c #173800",
">	c #1B3600",
",	c #402000",
"'	c #093E00",
")	c #0F3C00",
"!	c #084100",
"~	c #044100",
"{	c #024000",
"]	c #123A00",
"^	c #073F00",
"/	c #054000",
"(	c #442300",
"_	c #133B00",
":	c #014100",
"<	c #043F00",
"[	c #053F00",
"}	c #452300",
"|	c #492500",
"1	c #213800",
"2	c #343000",
"3	c #3C2B00",
"4	c #4A2500",
"5	c #462300",
"6	c #4B2600",
"7	c #4C2600",
"8	c #4E2700",
"9	c #4D2600",
"0	c #492400",
"a	c #482400",
"b	c #4F2800",
"c	c #512900",
"d	c #4F2700",
"e	c #472400",
"f	c #4D2700",
"g	c #482800",
"h	c #1A3700",
"i	c #4C2800",
"j	c #492900",
"k	c #313100",
"l	c #073D00",
"m	c #143900",
"n	c #293200",
"o	c #293300",
"p	c #203500",
"q	c #263200",
"r	c #113900",
"s	c #043E00",
"t	c #023F00",
"              .+@               ",
"          @@@#$$$%#             ",
"      @$$$$$$$$$$$$$$$#         ",
"      +$$$$$$$$$$$$$$$%         ",
"      #$$$$$$$$$$$$$$$$+        ",
"     #$$$$$$$$$$$$$$$$$%%%#     ",
"   %$$$$$$$$$$$$$$$$$$$$$$%+    ",
"  %$$$$$$$$$$$$$$$$$$$$$$$$%+   ",
"  $$$$$$$$$$$$$$$$$$$$$$$$#@.   ",
"  #$$$$$$$$$$$$$$$$$$$$$$$+  +  ",
"  +$$$$$$$$%%$&*$$$$$$$$$$$%+$+ ",
" +%$$$$$$#@  =- %$$$$$$$$$$$$$  ",
" %$$$$$#;  @+>   #$$$$$$$$$$$$# ",
" %$$$$$. , %$'  @%$$$$$$$$$$$$%@",
" %$$$$%)!~{$$+  #++#]^#%$$$$$$$+",
" $$$$$+ /$$$$%%@    (   _:$$$$$@",
" %$$$%  +$$$<[+    }   |   %$$% ",
" .%$#   @$%123    45 56    %$$# ",
"            4788996 0|      %%  ",
"             abb84cd|           ",
"              d99776            ",
"              e64f7             ",
"              474|6             ",
"              97f90             ",
"              7879g             ",
"             hi879jk            ",
"           $lm;nopqrl$          ",
"               sst              "};
