<?xml version="1.0" encoding="UTF-8"?>
<svg xmlns="http://www.w3.org/2000/svg" xmlns:xlink="http://www.w3.org/1999/xlink" width="128px" height="128px" viewBox="0 0 128 128" version="1.1">
<defs>
<filter id="alpha" filterUnits="objectBoundingBox" x="0%" y="0%" width="100%" height="100%">
  <feColorMatrix type="matrix" in="SourceGraphic" values="0 0 0 0 1 0 0 0 0 1 0 0 0 0 1 0 0 0 1 0"/>
</filter>
<mask id="mask0">
  <g filter="url(#alpha)">
<rect x="0" y="0" width="128" height="128" style="fill:rgb(0%,0%,0%);fill-opacity:0.593;stroke:none;"/>
  </g>
</mask>
<clipPath id="clip1">
  <rect x="0" y="0" width="192" height="152"/>
</clipPath>
<g id="surface46911" clip-path="url(#clip1)">
<path style=" stroke:none;fill-rule:nonzero;fill:rgb(14.117648%,12.156863%,19.215687%);fill-opacity:1;" d="M 175.015625 17.074219 C 171.574219 17.570312 169.019531 20.519531 169.015625 23.996094 C 169.015625 25.652344 169.605469 27.253906 170.675781 28.519531 L 175.015625 24.179688 Z M 175.015625 17.074219 "/>
</g>
<linearGradient id="linear0" gradientUnits="userSpaceOnUse" x1="12" y1="251.712906" x2="19.416016" y2="251.712906" gradientTransform="matrix(1.153845,0,0,1.034463,-9.846041,-178.065537)">
<stop offset="0" style="stop-color:rgb(14.901961%,63.529414%,41.176471%);stop-opacity:1;"/>
<stop offset="1" style="stop-color:rgb(18.039216%,76.078433%,49.411765%);stop-opacity:1;"/>
</linearGradient>
<linearGradient id="linear1" gradientUnits="userSpaceOnUse" x1="13.916016" y1="264.001099" x2="116" y2="264.001099" gradientTransform="matrix(1.153845,0,0,1.034463,-9.846041,-178.065537)">
<stop offset="0" style="stop-color:rgb(89.803922%,64.705884%,3.921569%);stop-opacity:1;"/>
<stop offset="0.255515" style="stop-color:rgb(97.254902%,89.411765%,36.078432%);stop-opacity:1;"/>
<stop offset="1" style="stop-color:rgb(89.803922%,64.705884%,3.921569%);stop-opacity:1;"/>
</linearGradient>
<mask id="mask2">
  <g filter="url(#alpha)">
<rect x="0" y="0" width="128" height="128" style="fill:rgb(0%,0%,0%);fill-opacity:0.593;stroke:none;"/>
  </g>
</mask>
<clipPath id="clip4">
  <rect x="0" y="0" width="192" height="152"/>
</clipPath>
<g id="surface46911" clip-path="url(#clip4)">
<path style=" stroke:none;fill-rule:nonzero;fill:rgb(14.117648%,12.156863%,19.215687%);fill-opacity:1;" d="M 175.015625 17.074219 C 171.574219 17.570312 169.019531 20.519531 169.015625 23.996094 C 169.015625 25.652344 169.605469 27.253906 170.675781 28.519531 L 175.015625 24.179688 Z M 175.015625 17.074219 "/>
</g>
<linearGradient id="linear2" gradientUnits="userSpaceOnUse" x1="12" y1="251.712906" x2="19.416016" y2="251.712906" gradientTransform="matrix(1.153845,0,0,1.034463,-9.846041,-178.065537)">
<stop offset="0" style="stop-color:rgb(14.901961%,63.529414%,41.176471%);stop-opacity:1;"/>
<stop offset="1" style="stop-color:rgb(18.039216%,76.078433%,49.411765%);stop-opacity:1;"/>
</linearGradient>
<linearGradient id="linear3" gradientUnits="userSpaceOnUse" x1="13.916016" y1="264.001099" x2="116" y2="264.001099" gradientTransform="matrix(1.153845,0,0,1.034463,-9.846041,-178.065537)">
<stop offset="0" style="stop-color:rgb(89.803922%,64.705884%,3.921569%);stop-opacity:1;"/>
<stop offset="0.255515" style="stop-color:rgb(97.254902%,89.411765%,36.078432%);stop-opacity:1;"/>
<stop offset="1" style="stop-color:rgb(89.803922%,64.705884%,3.921569%);stop-opacity:1;"/>
</linearGradient>
<clipPath id="clip3">
  <rect x="0" y="0" width="128" height="128"/>
</clipPath>
<g id="surface46920" clip-path="url(#clip3)">
<use xlink:href="#surface46911" transform="matrix(1,0,0,1,-8,-16)" mask="url(#mask2)"/>
<path style=" stroke:none;fill-rule:nonzero;fill:url(#linear2);" d="M 4 59.859375 L 4 70.207031 L 4.003906 70.207031 C 4.003906 82.851562 8.972656 95.09375 18.039062 104.785156 L 18.039062 94.4375 C 15.386719 91.605469 19.773438 81.695312 17.847656 78.480469 C 13.179688 70.699219 4.003906 68.808594 4.003906 59.859375 Z M 4 59.859375 "/>
<path style=" stroke:none;fill-rule:nonzero;fill:rgb(14.901961%,63.529414%,41.176471%);fill-opacity:1;" d="M 18.039062 104.785156 L 64 70.207031 L 64 55.722656 L 18.039062 90.300781 Z M 18.039062 104.785156 "/>
<path style=" stroke:none;fill-rule:nonzero;fill:rgb(34.117648%,89.019608%,53.725493%);fill-opacity:1;" d="M 18.039062 94.4375 C 3.050781 78.421875 -0.234375 56.074219 9.621094 37.128906 C 19.476562 18.179688 40.683594 6.070312 64 6.070312 L 77.847656 35.035156 L 64 59.859375 Z M 18.039062 94.4375 "/>
<path style=" stroke:none;fill-rule:nonzero;fill:rgb(10.196079%,37.254903%,70.588237%);fill-opacity:1;" d="M 64 57.792969 L 124 57.792969 L 124 71.445312 L 64 71.445312 Z M 64 57.792969 "/>
<path style=" stroke:none;fill-rule:nonzero;fill:rgb(38.431373%,62.7451%,91.764706%);fill-opacity:1;" d="M 64 4 C 97.136719 4 124 28.082031 124 57.792969 L 64 57.792969 Z M 64 4 "/>
<path style=" stroke:none;fill-rule:nonzero;fill:url(#linear3);" d="M 124 66.066406 C 123.984375 67.449219 123.90625 68.828125 123.769531 70.207031 C 123.90625 68.828125 123.984375 67.449219 124 66.066406 Z M 123.769531 70.207031 C 121.96875 91.238281 99.945312 87.800781 77.847656 95.03125 C 54.144531 102.765625 34.25 117.96875 18.039062 100.644531 L 18.039062 104.785156 C 34.25 122.105469 60.820312 128.488281 84.519531 120.753906 C 108.222656 113.019531 124 92.820312 124 70.207031 Z M 123.769531 70.207031 "/>
<path style=" stroke:none;fill-rule:nonzero;fill:rgb(97.647059%,94.117647%,41.960785%);fill-opacity:1;" d="M 124 66.066406 C 124 88.683594 108.222656 108.882812 84.519531 116.617188 C 60.820312 124.351562 34.25 117.96875 18.039062 100.644531 L 64 66.066406 Z M 124 66.066406 "/>
</g>
<clipPath id="clip2">
  <rect x="0" y="0" width="128" height="128"/>
</clipPath>
<g id="surface46923" clip-path="url(#clip2)" filter="url(#alpha)">
<use xlink:href="#surface46920"/>
</g>
<mask id="mask1">
<use xlink:href="#surface46923"/>
</mask>
<mask id="mask3">
  <g filter="url(#alpha)">
<rect x="0" y="0" width="128" height="128" style="fill:rgb(0%,0%,0%);fill-opacity:0.8;stroke:none;"/>
  </g>
</mask>
<linearGradient id="linear4" gradientUnits="userSpaceOnUse" x1="300" y1="235" x2="428" y2="235" gradientTransform="matrix(0.000000000000000023,0.37,-0.98462,0.00000000000000006,295.38501,-30.360001)">
<stop offset="0" style="stop-color:rgb(97.647059%,94.117647%,41.960785%);stop-opacity:1;"/>
<stop offset="1" style="stop-color:rgb(96.078432%,76.078433%,6.666667%);stop-opacity:1;"/>
</linearGradient>
<clipPath id="clip6">
  <rect x="0" y="0" width="128" height="128"/>
</clipPath>
<g id="surface46917" clip-path="url(#clip6)">
<path style=" stroke:none;fill-rule:nonzero;fill:url(#linear4);" d="M 128 80.640625 L 128 128 L 0 128 L 0 80.640625 Z M 128 80.640625 "/>
<path style=" stroke:none;fill-rule:nonzero;fill:rgb(0%,0%,0%);fill-opacity:1;" d="M 13.308594 80.640625 L 60.664062 128 L 81.878906 128 L 34.519531 80.640625 Z M 55.730469 80.640625 L 103.09375 128 L 124.308594 128 L 76.945312 80.640625 Z M 98.160156 80.640625 L 128 110.480469 L 128 89.269531 L 119.371094 80.640625 Z M 0 88.546875 L 0 109.761719 L 18.238281 128 L 39.453125 128 Z M 0 88.546875 "/>
</g>
<clipPath id="clip5">
  <rect x="0" y="0" width="128" height="128"/>
</clipPath>
<g id="surface46922" clip-path="url(#clip5)">
<use xlink:href="#surface46917" mask="url(#mask3)"/>
</g>
</defs>
<g id="surface46907">
<use xlink:href="#surface46911" transform="matrix(1,0,0,1,-8,-16)" mask="url(#mask0)"/>
<path style=" stroke:none;fill-rule:nonzero;fill:url(#linear0);" d="M 4 59.859375 L 4 70.207031 L 4.003906 70.207031 C 4.003906 82.851562 8.972656 95.09375 18.039062 104.785156 L 18.039062 94.4375 C 15.386719 91.605469 19.773438 81.695312 17.847656 78.480469 C 13.179688 70.699219 4.003906 68.808594 4.003906 59.859375 Z M 4 59.859375 "/>
<path style=" stroke:none;fill-rule:nonzero;fill:rgb(14.901961%,63.529414%,41.176471%);fill-opacity:1;" d="M 18.039062 104.785156 L 64 70.207031 L 64 55.722656 L 18.039062 90.300781 Z M 18.039062 104.785156 "/>
<path style=" stroke:none;fill-rule:nonzero;fill:rgb(34.117648%,89.019608%,53.725493%);fill-opacity:1;" d="M 18.039062 94.4375 C 3.050781 78.421875 -0.234375 56.074219 9.621094 37.128906 C 19.476562 18.179688 40.683594 6.070312 64 6.070312 L 77.847656 35.035156 L 64 59.859375 Z M 18.039062 94.4375 "/>
<path style=" stroke:none;fill-rule:nonzero;fill:rgb(10.196079%,37.254903%,70.588237%);fill-opacity:1;" d="M 64 57.792969 L 124 57.792969 L 124 71.445312 L 64 71.445312 Z M 64 57.792969 "/>
<path style=" stroke:none;fill-rule:nonzero;fill:rgb(38.431373%,62.7451%,91.764706%);fill-opacity:1;" d="M 64 4 C 97.136719 4 124 28.082031 124 57.792969 L 64 57.792969 Z M 64 4 "/>
<path style=" stroke:none;fill-rule:nonzero;fill:url(#linear1);" d="M 124 66.066406 C 123.984375 67.449219 123.90625 68.828125 123.769531 70.207031 C 123.90625 68.828125 123.984375 67.449219 124 66.066406 Z M 123.769531 70.207031 C 121.96875 91.238281 99.945312 87.800781 77.847656 95.03125 C 54.144531 102.765625 34.25 117.96875 18.039062 100.644531 L 18.039062 104.785156 C 34.25 122.105469 60.820312 128.488281 84.519531 120.753906 C 108.222656 113.019531 124 92.820312 124 70.207031 Z M 123.769531 70.207031 "/>
<path style=" stroke:none;fill-rule:nonzero;fill:rgb(97.647059%,94.117647%,41.960785%);fill-opacity:1;" d="M 124 66.066406 C 124 88.683594 108.222656 108.882812 84.519531 116.617188 C 60.820312 124.351562 34.25 117.96875 18.039062 100.644531 L 64 66.066406 Z M 124 66.066406 "/>
<use xlink:href="#surface46922" mask="url(#mask1)"/>
</g>
</svg>
